<svg 
          width="66.0162353515625" 
          height="3.8499526977539062" fill="none" 
          xmlns="http://www.w3.org/2000/svg">
          <path d="M 66.0162353515625 1.9249763488769531 C 66.01623535156249 2.4355115675015986 65.79830590107709 2.925137237767282 65.41039625696214 3.286140143380993 C 65.0224866128472 3.6471430489947037 64.49637498269878 3.8499526977539062 63.94778788856402 3.8499526977539062 L 1.9451153470444937 3.8499526977539062 C 1.4185138228181318 3.8198049733219985 0.9240940220580114 3.6038731143170835 0.5626612941942568 3.246182873590514 C 0.20122856633050218 2.888492632863944 0 2.415977404744181 0 1.9249763488769531 C 0 1.4339752930097251 0.20122856633050218 0.9614600648899617 0.5626612941942568 0.6037698241633922 C 0.9240940220580114 0.24607958343682268 1.4185138228181318 0.030147724431907795 1.9451153470444937 0 L 63.94778788856402 0.010917628170995867 C 64.21872227016102 0.009960277236650775 64.48719785893113 0.05873648195427897 64.73785325929036 0.15445355276748665 C 64.9885086596496 0.2501706235806943 65.21642175582227 0.39094896511459776 65.40854668541007 0.5687334687869223 C 65.60067161499788 0.7465179724592469 65.75324022701146 0.9578175839996117 65.85751526377555 1.1905385483872712 C 65.96179030053965 1.4232595127749308 66.01572319379285 1.672833519133051 66.0162353515625 1.9249763488769531 L 66.0162353515625 1.9249763488769531 Z" fill="rgb(255,217,131)"/>
        </svg>