<svg 
          width="62.00270080566406" 
          height="9.617584228515625" fill="none" 
          xmlns="http://www.w3.org/2000/svg">
          <path d="M 62.00270080566406 3.846307007307589 C 62.00270080566406 1.7211954474448556 60.028089418001606 0 57.595997885726675 0 L 4.132992324744917 0 C 1.6969904946145893 0 0 1.7211954474448556 0 3.846307007307589 C 0 5.290946276277179 0.7976646380415162 6.535446802021224 2.068452010483226 7.194085818850527 L 2.068452010483226 9.617584228515625 L 10.33443665997306 9.617584228515625 L 10.33443665997306 7.692614014615178 L 18.60042130946289 7.692614014615178 L 18.60042130946289 9.617584228515625 L 26.866405958952726 9.617584228515625 L 26.866405958952726 7.692614014615178 L 35.1323831504898 7.692614014615178 L 35.1323831504898 9.617584228515625 L 43.39836779997963 9.617584228515625 L 43.39836779997963 7.692614014615178 L 51.66435244946947 7.692614014615178 L 51.66435244946947 9.617584228515625 L 59.93424506620446 9.617584228515625 L 59.93424506620446 7.09583424195805 C 61.17375157069968 6.411722999756023 62.00270080566406 5.214529491711643 62.00270080566406 3.846307007307589 Z" fill="rgb(255,204,77)"/>
        </svg>