<svg 
          width="86.51902770996094" 
          height="84.27971649169922" fill="none" 
          xmlns="http://www.w3.org/2000/svg">
          <path d="M 38.93356031702221 54.78176609653082 L 38.71294032065666 54.78176609653082 C 37.624139737364416 54.78176609653082 36.579933925540494 54.360437425382415 35.810035624584366 53.61046586132896 C 35.04013732362824 52.86049429727551 34.60761036649764 51.84331493096863 34.60761036649764 50.78269500833741 C 34.60761036649764 49.6650764769379 34.151841491582864 48.593230862769126 33.340568252992256 47.80295523952784 C 32.52929501440165 47.012679616286555 31.42897406049445 46.56871058158551 30.281660415973064 46.56871058158551 C 29.13434677145168 46.56871058158551 28.03402402382764 47.012679616286555 27.22275078523703 47.80295523952784 C 26.411477546646417 48.593230862769126 25.955706878014805 49.6650764769379 25.95570687801481 50.78269500833741 C 25.955706878014816 54.07855210297337 27.29976782938031 57.23941194085557 29.692212775678616 59.56993491520015 C 32.08465772197692 61.90045788954473 35.329512336214336 63.20973844461728 38.71294032065666 63.20973844461728 L 38.93356031702221 63.20973844461728 L 38.93356031702221 67.42372287136918 C 38.93356031702221 68.5413414027687 39.38933277937066 69.61318701693747 40.20060601796127 70.40346264017876 C 41.01187925655188 71.19373826342004 42.11220021045908 71.63770729812109 43.25951385498047 71.63770729812109 C 44.40682749950186 71.63770729812109 45.50714845340905 71.19373826342004 46.31842169199966 70.40346264017876 C 47.12969493059027 69.61318701693747 47.58546380550504 68.5413414027687 47.58546380550504 67.42372287136918 L 47.58546380550504 63.20973844461728 C 51.0274046269619 63.20973837396112 54.328374775658155 61.87782435134885 56.76219449142999 59.50699748162499 C 59.19601420720182 57.136170611901136 60.56332083194613 53.92063366018912 60.56332083194613 50.567778175196274 C 60.56332083194613 47.21492269020343 59.19601420720182 43.99939622223937 56.76219449142999 41.62856935251551 C 54.328374775658155 39.257742482791656 51.0274046269619 37.92582147101407 47.58546380550504 37.92582140035792 L 47.58546380550504 29.49785254685412 L 47.6806348335642 29.49785254685412 C 50.01664855123996 29.49785254685412 51.91141375602962 31.343580369423233 51.91141375602962 33.61913268499516 C 51.91141375602962 34.73675121639467 52.367186218378066 35.80859333598079 53.178459456968675 36.598868959222074 C 53.98973269555928 37.38914458246336 55.09005364946648 37.83311711174706 56.23736729398787 37.83311711174706 C 57.38468093850926 37.83311711174706 58.485001892416456 37.38914458246336 59.296275131007064 36.598868959222074 C 60.10754836959767 35.80859333598079 60.56332083194613 34.73675121639467 60.56332083194613 33.61913268499516 C 60.56332083194612 30.290864865135305 59.20603704847057 27.098912633334947 56.790065263678905 24.745471749131116 C 54.37409347888724 22.392030864927285 51.097334695873144 21.069880198767667 47.6806348335642 21.069880198767667 L 47.58546380550504 21.069880198767667 L 47.58546380550504 16.855892277433114 C 47.58546380550504 15.738273746033595 47.12969493059027 14.666431626447478 46.31842169199966 13.876156003206194 C 45.50714845340905 13.08588037996491 44.40682749950186 12.641906977035552 43.25951385498047 12.641906977035552 C 42.11220021045908 12.641906977035552 41.01187925655188 13.08588037996491 40.20060601796127 13.876156003206194 C 39.38933277937066 14.666431626447478 38.93356031702221 15.738273746033595 38.93356031702221 16.855892277433114 L 38.93356031702221 21.069880198767667 C 35.49161949556535 21.069880198767667 32.19065114058594 22.40179953391008 29.75683142481411 24.772626403633932 C 27.323011709042277 27.143453273357785 25.95570687801481 30.35898148861317 25.95570687801481 33.71183697360602 C 25.95570687801481 37.06469245859886 27.323011709042277 40.28022591572824 29.75683142481411 42.65105278545209 C 32.19065114058594 45.02187965517594 35.49161949556535 46.35379374844437 38.93356031702221 46.353793748444375 L 38.93356031702221 54.78176609653082 Z M 47.58546380550504 54.78176609653082 L 47.58546380550504 46.353793748444375 C 48.73277745002643 46.353793748444375 49.83309840393363 46.797766277728066 50.64437164252424 47.58804190096935 C 51.45564488111485 48.37831752421064 51.91141375602962 49.45015964379676 51.91141375602962 50.567778175196274 C 51.91141375602962 51.68539670659579 51.45564488111485 52.75724232076456 50.64437164252424 53.54751794400585 C 49.83309840393363 54.33779356724713 48.73277745002643 54.78176609653082 47.58546380550504 54.78176609653082 Z M 38.93356031702221 29.49785254685412 L 38.93356031702221 37.92582140035792 C 37.78624667250082 37.92582140035792 36.68592571859362 37.48184887107423 35.874652480003014 36.69157324783294 C 35.063379241412406 35.901297624591656 34.60761036649764 34.829455505005534 34.60761036649764 33.71183697360602 C 34.60761036649764 32.594218442206504 35.063379241412406 31.522376322620385 35.874652480003014 30.7321006993791 C 36.68592571859362 29.941825076137814 37.78624667250082 29.49785254685412 38.93356031702221 29.49785254685412 Z M 43.25951385498047 84.27966756754209 C 19.36728627286926 84.27966756754209 0 65.41365116057457 0 42.139809321692475 C 0 18.86596748281037 19.36728627286926 -0.00004892415713782058 43.25951385498047 -0.00004892415713782058 C 67.15174143709167 -0.00004892415713782058 86.51902770996094 18.86596748281037 86.51902770996094 42.139809321692475 C 86.51902770996094 65.41365116057457 67.15174143709167 84.27966756754209 43.25951385498047 84.27966756754209 Z" fill="rgb(255,204,77)"/>
        </svg>