<svg width="385" height="139" viewBox="0 0 385 139" fill="none" xmlns="http://www.w3.org/2000/svg">
<g filter="url(#filter0_d_14_2)">
<rect x="92" y="22" width="284" height="90" rx="15" fill="#FFFCFC" stroke="#FFCC4D" stroke-width="10"/>
<path d="M74.3821 131C111.094 131 140.854 103.304 140.854 69.1389C140.854 34.974 111.094 7.27783 74.3821 7.27783C37.6707 7.27783 7.91016 34.974 7.91016 69.1389C7.91016 103.304 37.6707 131 74.3821 131Z" fill="#F4900C"/>
<path d="M74.3821 123.722C111.094 123.722 140.854 96.0261 140.854 61.8611C140.854 27.6962 111.094 0 74.3821 0C37.6707 0 7.91016 27.6962 7.91016 61.8611C7.91016 96.0261 37.6707 123.722 74.3821 123.722Z" fill="#FFCC4D"/>
<path d="M74.3822 116.445C104.615 116.445 129.124 93.636 129.124 65.5001C129.124 37.3643 104.615 14.5557 74.3822 14.5557C44.1493 14.5557 19.6406 37.3643 19.6406 65.5001C19.6406 93.636 44.1493 116.445 74.3822 116.445Z" fill="#FFE8B6"/>
<path d="M74.3822 112.806C104.615 112.806 129.124 89.997 129.124 61.8612C129.124 33.7254 104.615 10.9167 74.3822 10.9167C44.1493 10.9167 19.6406 33.7254 19.6406 61.8612C19.6406 89.997 44.1493 112.806 74.3822 112.806Z" fill="#FFAC33"/>
<path d="M41.3145 39.5038C41.3145 37.5206 43.4064 36.7273 43.4064 36.7273L74.2102 23.2634L105.307 36.7273C105.307 36.7273 107.45 37.1713 107.45 39.5183V41.8509H41.3145V39.5038Z" fill="#FFE8B6"/>
<path d="M105.385 46.7087C105.385 44.5836 103.411 42.8624 100.979 42.8624H47.5156C45.0796 42.8624 43.3826 44.5836 43.3826 46.7087C43.3826 48.1534 44.1803 49.3979 45.451 50.0565V52.48H53.717V50.555H61.983V52.48H70.249V50.555H78.515V52.48H86.781V50.555H95.0469V52.48H103.317V49.9583C104.556 49.2741 105.385 48.077 105.385 46.7087ZM111.583 87.3333C111.583 88.0986 111.256 88.8326 110.675 89.3737C110.093 89.9149 109.304 90.2189 108.482 90.2189H40.2819C39.4595 90.2189 38.6708 89.9149 38.0893 89.3737C37.5078 88.8326 37.1812 88.0986 37.1812 87.3333C37.1812 86.568 37.5078 85.834 38.0893 85.2928C38.6708 84.7517 39.4595 84.4476 40.2819 84.4476H108.486C110.195 84.4476 111.583 85.7394 111.583 87.3333V87.3333Z" fill="#F4900C"/>
<path d="M107.45 44.3945C107.45 44.905 107.232 45.3946 106.844 45.7556C106.457 46.1166 105.93 46.3194 105.382 46.3194H43.3792C42.8526 46.2893 42.3582 46.0733 41.9967 45.7157C41.6353 45.358 41.4341 44.8855 41.4341 44.3945C41.4341 43.9035 41.6353 43.4309 41.9967 43.0733C42.3582 42.7156 42.8526 42.4996 43.3792 42.4695L105.382 42.4804C105.653 42.4794 105.921 42.5282 106.172 42.6239C106.423 42.7197 106.651 42.8604 106.843 43.0382C107.035 43.216 107.187 43.4273 107.292 43.66C107.396 43.8927 107.45 44.1423 107.45 44.3945V44.3945ZM51.6491 46.6287H97.1198V50.9445H51.6491V46.6287Z" fill="#F4900C"/>
<path d="M53.7133 75.7944C53.7133 77.9195 52.4777 79.6407 50.9566 79.6407H48.2C46.679 79.6407 45.4434 77.9195 45.4434 75.7944V46.6323C45.4434 44.5072 46.679 42.786 48.2 42.786H50.9566C52.4777 42.786 53.7133 44.5072 53.7133 46.6323V75.7944ZM103.317 75.7944C103.317 77.9195 102.085 79.6407 100.56 79.6407H97.8037C96.2827 79.6407 95.0471 77.9195 95.0471 75.7944V46.6323C95.0471 44.5072 96.2788 42.786 97.8037 42.786H100.56C102.081 42.786 103.317 44.5072 103.317 46.6323V75.7944ZM70.2491 75.7944C70.2491 77.9195 69.0135 79.6407 67.4925 79.6407H64.7359C63.2148 79.6407 61.9792 77.9195 61.9792 75.7944V46.6323C61.9792 44.5072 63.2148 42.786 64.7359 42.786H67.4925C69.0135 42.786 70.2491 44.5072 70.2491 46.6323V75.7944ZM86.7811 75.7944C86.7811 77.9195 85.5455 79.6407 84.0245 79.6407H81.2717C79.7507 79.6407 78.5151 77.9195 78.5151 75.7944V46.6323C78.5151 44.5072 79.7507 42.786 81.2717 42.786H84.0245C85.5455 42.786 86.7811 44.5072 86.7811 46.6323V75.7944Z" fill="#FFD983"/>
<path d="M105.386 77.7157C105.386 79.8408 103.536 81.562 101.253 81.562H47.5158C46.4197 81.562 45.3684 81.1568 44.5933 80.4354C43.8183 79.7141 43.3828 78.7358 43.3828 77.7157C43.3828 76.6956 43.8183 75.7173 44.5933 74.9959C45.3684 74.2746 46.4197 73.8694 47.5158 73.8694H101.253C103.532 73.8694 105.386 75.5906 105.386 77.7157V77.7157Z" fill="#FFCC4D"/>
<path d="M109.518 81.5621C109.518 83.6872 107.669 85.4084 105.385 85.4084H43.3786C42.2825 85.4084 41.2312 85.0032 40.4561 84.2819C39.681 83.5606 39.2456 82.5822 39.2456 81.5621C39.2456 80.542 39.681 79.5637 40.4561 78.8424C41.2312 78.1211 42.2825 77.7158 43.3786 77.7158H105.381C107.665 77.7158 109.518 79.437 109.518 81.5621V81.5621Z" fill="#FFD983"/>
<path d="M111.583 84.4478C111.583 85.2131 111.256 85.9471 110.675 86.4882C110.093 87.0294 109.304 87.3334 108.482 87.3334H40.2819C39.8747 87.3334 39.4715 87.2588 39.0953 87.1138C38.7191 86.9687 38.3773 86.7562 38.0893 86.4882C37.8014 86.2203 37.573 85.9022 37.4172 85.5521C37.2614 85.202 37.1812 84.8267 37.1812 84.4478C37.1812 84.0688 37.2614 83.6936 37.4172 83.3435C37.573 82.9934 37.8014 82.6753 38.0893 82.4073C38.3773 82.1394 38.7191 81.9268 39.0953 81.7818C39.4715 81.6368 39.8747 81.5621 40.2819 81.5621H108.486C110.195 81.5621 111.583 82.8539 111.583 84.4478V84.4478Z" fill="#FFD983"/>
<path d="M105.386 44.7075C105.386 42.5824 103.411 40.8612 100.979 40.8612H47.5158C45.0798 40.8612 43.3828 42.5824 43.3828 44.7075C43.3828 46.1522 44.1805 47.3967 45.4513 48.0553V50.4788H53.7172V48.5538H61.9832V50.4788H70.2492V48.5538H78.5152V50.4788H86.7812V48.5538H95.0472V50.4788H103.317V47.957C104.557 47.2729 105.386 46.0757 105.386 44.7075Z" fill="#FFCC4D"/>
<path d="M41.3145 41.7125C41.3145 39.7293 43.4064 38.9361 43.4064 38.9361L74.2102 25.4722L105.307 38.9361C105.307 38.9361 107.45 39.38 107.45 41.7271V42.786H41.3145V41.7125Z" fill="#FFD983"/>
<path d="M74.3825 30.3593C74.3825 30.3593 53.0528 39.7148 50.9257 40.5591C48.7947 41.3996 49.5063 42.7824 50.9296 42.7824H97.7337C99.9312 42.7824 99.4111 41.2213 97.6672 40.3771C95.9233 39.5365 74.3825 30.3593 74.3825 30.3593Z" fill="#FFAC33"/>
<path d="M107.45 42.7824C107.45 43.2929 107.232 43.7826 106.844 44.1436C106.457 44.5046 105.93 44.7074 105.382 44.7074H43.3792C42.8526 44.6772 42.3582 44.4613 41.9967 44.1036C41.6353 43.7459 41.4341 43.2734 41.4341 42.7824C41.4341 42.2914 41.6353 41.8189 41.9967 41.4612C42.3582 41.1035 42.8526 40.8876 43.3792 40.8574L105.382 40.8683C105.653 40.8674 105.921 40.9162 106.172 41.0119C106.423 41.1076 106.651 41.2484 106.843 41.4262C107.035 41.6039 107.187 41.8152 107.292 42.048C107.396 42.2807 107.45 42.5303 107.45 42.7824V42.7824Z" fill="#FFD983"/>
<path d="M124.374 65.042C124.374 90.3389 102.059 110.846 74.5319 110.846C47.0047 110.846 24.6895 90.3389 24.6895 65.042C24.6895 39.745 47.0047 19.2378 74.5319 19.2378C102.059 19.2378 124.374 39.745 124.374 65.042Z" fill="#FFAC33"/>
<path d="M70.206 74.9356H69.9854C68.8966 74.9356 67.8524 74.5142 67.0825 73.7643C66.3126 73.0143 65.8801 71.9971 65.8801 70.9365C65.8801 69.8189 65.4243 68.747 64.613 67.9568C63.8018 67.1665 62.7014 66.7225 61.5541 66.7225C60.4068 66.7225 59.3065 67.1665 58.4952 67.9568C57.6839 68.747 57.2282 69.8189 57.2282 70.9365C57.2282 74.2324 58.5722 77.3932 60.9647 79.7237C63.3571 82.0543 66.602 83.3635 69.9854 83.3635H70.206V87.5775C70.206 88.6951 70.6618 89.767 71.4731 90.5573C72.2843 91.3475 73.3847 91.7915 74.532 91.7915C75.6793 91.7915 76.7796 91.3475 77.5909 90.5573C78.4022 89.767 78.8579 88.6951 78.8579 87.5775V83.3635C82.2999 83.3635 85.6008 82.0316 88.0347 79.6608C90.4685 77.29 91.8358 74.0744 91.8358 70.7216C91.8358 67.3687 90.4685 64.1532 88.0347 61.7824C85.6008 59.4116 82.2999 58.0796 78.8579 58.0796V49.6517H78.9531C81.2891 49.6517 83.1839 51.4974 83.1839 53.7729C83.1839 54.8906 83.6396 55.9624 84.4509 56.7527C85.2622 57.543 86.3625 57.9869 87.5098 57.9869C88.6571 57.9869 89.7575 57.543 90.5687 56.7527C91.38 55.9624 91.8358 54.8906 91.8358 53.7729C91.8358 50.4447 90.4785 47.2527 88.0625 44.8993C85.6466 42.5458 82.3698 41.2237 78.9531 41.2237H78.8579V37.0097C78.8579 35.8921 78.4022 34.8202 77.5909 34.03C76.7796 33.2397 75.6793 32.7957 74.532 32.7957C73.3847 32.7957 72.2843 33.2397 71.4731 34.03C70.6618 34.8202 70.206 35.8921 70.206 37.0097V41.2237C66.7641 41.2237 63.4631 42.5556 61.0293 44.9264C58.5955 47.2973 57.2282 50.5128 57.2282 53.8656C57.2282 57.2185 58.5955 60.434 61.0293 62.8049C63.4631 65.1757 66.7641 66.5076 70.206 66.5076V74.9356ZM78.8579 74.9356V66.5076C80.0052 66.5076 81.1056 66.9516 81.9168 67.7419C82.7281 68.5321 83.1839 69.604 83.1839 70.7216C83.1839 71.8392 82.7281 72.9111 81.9168 73.7013C81.1056 74.4916 80.0052 74.9356 78.8579 74.9356ZM70.206 49.6517V58.0796C69.0587 58.0796 67.9584 57.6357 67.1471 56.8454C66.3358 56.0551 65.8801 54.9833 65.8801 53.8656C65.8801 52.748 66.3358 51.6762 67.1471 50.8859C67.9584 50.0956 69.0587 49.6517 70.206 49.6517ZM74.532 104.433C50.6397 104.433 31.2725 85.5675 31.2725 62.2936C31.2725 39.0198 50.6397 20.1538 74.532 20.1538C98.4242 20.1538 117.791 39.0198 117.791 62.2936C117.791 85.5675 98.4242 104.433 74.532 104.433Z" fill="#FFCC4D"/>
</g>
<defs>
<filter id="filter0_d_14_2" x="0" y="0" width="385" height="139" filterUnits="userSpaceOnUse" color-interpolation-filters="sRGB">
<feFlood flood-opacity="0" result="BackgroundImageFix"/>
<feColorMatrix in="SourceAlpha" type="matrix" values="0 0 0 0 0 0 0 0 0 0 0 0 0 0 0 0 0 0 127 0" result="hardAlpha"/>
<feOffset dy="4"/>
<feGaussianBlur stdDeviation="2"/>
<feColorMatrix type="matrix" values="0 0 0 0 0 0 0 0 0 0 0 0 0 0 0 0 0 0 0.25 0"/>
<feBlend mode="normal" in2="BackgroundImageFix" result="effect1_dropShadow_14_2"/>
<feBlend mode="normal" in="SourceGraphic" in2="effect1_dropShadow_14_2" result="shape"/>
</filter>
</defs>
</svg>
