<svg width="60" height="60" viewBox="0 0 60 60" fill="none" xmlns="http://www.w3.org/2000/svg">
<path d="M16.4191 58.843L1.15205 43.5759C0.413968 42.8364 -0.000388866 41.8342 2.73845e-07 40.7894V19.2008C2.73845e-07 18.1571 0.413556 17.1527 1.15205 16.4142L16.4191 1.15205C17.1576 0.413556 18.162 0 19.2057 0H40.7943C41.838 0 42.8424 0.413556 43.5809 1.15205L58.8479 16.4191C59.5864 17.1576 60 18.162 60 19.2057V40.7943C60 41.838 59.5864 42.8424 58.8479 43.5809L43.5809 58.848C42.8414 59.586 41.8391 60.0004 40.7943 60H19.2057C18.1606 59.9973 17.1589 59.5814 16.4191 58.843Z" fill="#DB4437"/>
<path d="M23.3965 35.0566V37H15.8477V35.0566H23.3965ZM16.541 22.7812V37H14.0898V22.7812H16.541ZM22.4102 28.7188V30.6328H15.8477V28.7188H22.4102ZM23.3477 22.7812V24.7344H15.8477V22.7812H23.3477ZM27.498 28.6895V37H25.1445V26.4336H27.3613L27.498 28.6895ZM27.0781 31.3262L26.3164 31.3164C26.3229 30.5677 26.4271 29.8809 26.6289 29.2559C26.8372 28.6309 27.1237 28.0938 27.4883 27.6445C27.8594 27.1953 28.3021 26.8503 28.8164 26.6094C29.3307 26.362 29.9036 26.2383 30.5352 26.2383C31.043 26.2383 31.502 26.3099 31.9121 26.4531C32.3288 26.5898 32.6836 26.8145 32.9766 27.127C33.276 27.4395 33.5039 27.8464 33.6602 28.3477C33.8164 28.8424 33.8945 29.4512 33.8945 30.1738V37H31.5312V30.1641C31.5312 29.6562 31.4564 29.2559 31.3066 28.9629C31.1634 28.6634 30.9518 28.4518 30.6719 28.3281C30.3984 28.1979 30.0566 28.1328 29.6465 28.1328C29.2428 28.1328 28.8815 28.2174 28.5625 28.3867C28.2435 28.556 27.9733 28.7871 27.752 29.0801C27.5371 29.373 27.3711 29.7116 27.2539 30.0957C27.1367 30.4798 27.0781 30.89 27.0781 31.3262ZM42.7422 34.8125V22H45.1055V37H42.9668L42.7422 34.8125ZM35.8672 31.834V31.6289C35.8672 30.8281 35.9616 30.099 36.1504 29.4414C36.3392 28.7773 36.6126 28.2077 36.9707 27.7324C37.3288 27.2507 37.765 26.8828 38.2793 26.6289C38.7936 26.3685 39.373 26.2383 40.0176 26.2383C40.6556 26.2383 41.2155 26.362 41.6973 26.6094C42.179 26.8568 42.5892 27.2116 42.9277 27.6738C43.2663 28.1296 43.5365 28.6764 43.7383 29.3145C43.9401 29.946 44.0833 30.6491 44.168 31.4238V32.0781C44.0833 32.8333 43.9401 33.5234 43.7383 34.1484C43.5365 34.7734 43.2663 35.3138 42.9277 35.7695C42.5892 36.2253 42.1758 36.5768 41.6875 36.8242C41.2057 37.0716 40.6426 37.1953 39.998 37.1953C39.36 37.1953 38.7839 37.0618 38.2695 36.7949C37.7617 36.528 37.3288 36.1536 36.9707 35.6719C36.6126 35.1901 36.3392 34.6237 36.1504 33.9727C35.9616 33.3151 35.8672 32.6022 35.8672 31.834ZM38.2207 31.6289V31.834C38.2207 32.3158 38.263 32.765 38.3477 33.1816C38.4388 33.5983 38.5788 33.9661 38.7676 34.2852C38.9564 34.5977 39.2005 34.8451 39.5 35.0273C39.806 35.2031 40.1706 35.291 40.5938 35.291C41.1276 35.291 41.5671 35.1738 41.9121 34.9395C42.2572 34.7051 42.5273 34.3893 42.7227 33.9922C42.9245 33.5885 43.0612 33.1393 43.1328 32.6445V30.877C43.0938 30.4928 43.0124 30.1348 42.8887 29.8027C42.7715 29.4707 42.612 29.181 42.4102 28.9336C42.2083 28.6797 41.9577 28.4844 41.6582 28.3477C41.3652 28.2044 41.0169 28.1328 40.6133 28.1328C40.1836 28.1328 39.819 28.224 39.5195 28.4062C39.2201 28.5885 38.9727 28.8392 38.7773 29.1582C38.5885 29.4772 38.4486 29.8483 38.3574 30.2715C38.2663 30.6947 38.2207 31.1471 38.2207 31.6289Z" fill="white"/>
</svg>
