<svg width="190" height="163" viewBox="0 0 190 163" fill="none" xmlns="http://www.w3.org/2000/svg">
<path d="M66.9998 140C103.512 140 133.111 110.401 133.111 73.8889C133.111 37.3768 103.512 7.77783 66.9998 7.77783C30.4876 7.77783 0.888672 37.3768 0.888672 73.8889C0.888672 110.401 30.4876 140 66.9998 140Z" fill="#F4900C"/>
<path d="M66.9998 132.222C103.512 132.222 133.111 102.623 133.111 66.1111C133.111 29.599 103.512 0 66.9998 0C30.4876 0 0.888672 29.599 0.888672 66.1111C0.888672 102.623 30.4876 132.222 66.9998 132.222Z" fill="#FFCC4D"/>
<path d="M67.0001 124.445C97.0689 124.445 121.445 100.069 121.445 70.0001C121.445 39.9313 97.0689 15.5557 67.0001 15.5557C36.9313 15.5557 12.5557 39.9313 12.5557 70.0001C12.5557 100.069 36.9313 124.445 67.0001 124.445Z" fill="#FFE8B6"/>
<path d="M67.0001 120.555C97.0689 120.555 121.445 96.1798 121.445 66.1109C121.445 36.0421 97.0689 11.6665 67.0001 11.6665C36.9313 11.6665 12.5557 36.0421 12.5557 66.1109C12.5557 96.1798 36.9313 120.555 67.0001 120.555Z" fill="#FFAC33"/>
<path d="M62.3798 79.66H62.1442C60.9814 79.66 59.8662 79.1981 59.044 78.3759C58.2217 77.5537 57.7598 76.4385 57.7598 75.2757C57.7598 74.0504 57.2731 72.8753 56.4066 72.0088C55.5402 71.1424 54.3651 70.6557 53.1398 70.6557C51.9145 70.6557 50.7394 71.1424 49.873 72.0088C49.0066 72.8753 48.5198 74.0504 48.5198 75.2757C48.5198 78.8891 49.9552 82.3545 52.5103 84.9096C55.0654 87.4646 58.5308 88.9001 62.1442 88.9001H62.3798V93.52C62.3798 94.7453 62.8666 95.9205 63.733 96.7869C64.5994 97.6533 65.7745 98.14 66.9998 98.14C68.2251 98.14 69.4002 97.6533 70.2666 96.7869C71.1331 95.9205 71.6198 94.7453 71.6198 93.52V88.9001C75.2957 88.9001 78.821 87.4398 81.4203 84.8406C84.0196 82.2413 85.4798 78.7159 85.4798 75.04C85.4798 71.3641 84.0196 67.8388 81.4203 65.2396C78.821 62.6403 75.2957 61.18 71.6198 61.18V51.94H71.7214C74.2162 51.94 76.2398 53.9636 76.2398 56.4584C76.2398 57.6837 76.7266 58.8588 77.593 59.7252C78.4594 60.5917 79.6345 61.0784 80.8598 61.0784C82.0851 61.0784 83.2602 60.5917 84.1266 59.7252C84.9931 58.8588 85.4798 57.6837 85.4798 56.4584C85.4798 52.8095 84.0303 49.31 81.4501 46.7298C78.8699 44.1496 75.3704 42.7 71.7214 42.7H71.6198V38.08C71.6198 36.8547 71.1331 35.6796 70.2666 34.8132C69.4002 33.9468 68.2251 33.46 66.9998 33.46C65.7745 33.46 64.5994 33.9468 63.733 34.8132C62.8666 35.6796 62.3798 36.8547 62.3798 38.08V42.7C58.7039 42.7 55.1786 44.1603 52.5793 46.7595C49.98 49.3588 48.5198 52.8841 48.5198 56.56C48.5198 60.2359 49.98 63.7613 52.5793 66.3605C55.1786 68.9598 58.7039 70.42 62.3798 70.42V79.66ZM71.6198 79.66V70.42C72.8451 70.42 74.0202 70.9068 74.8866 71.7732C75.7531 72.6396 76.2398 73.8147 76.2398 75.04C76.2398 76.2653 75.7531 77.4405 74.8866 78.3069C74.0202 79.1733 72.8451 79.66 71.6198 79.66ZM62.3798 51.94V61.18C61.1545 61.18 59.9794 60.6933 59.113 59.8269C58.2466 58.9605 57.7598 57.7853 57.7598 56.56C57.7598 55.3347 58.2466 54.1596 59.113 53.2932C59.9794 52.4268 61.1545 51.94 62.3798 51.94ZM66.9998 112C41.4835 112 20.7998 91.3163 20.7998 65.8C20.7998 40.2838 41.4835 19.6 66.9998 19.6C92.5161 19.6 113.2 40.2838 113.2 65.8C113.2 91.3163 92.5161 112 66.9998 112Z" fill="#FFCC4D"/>
<path d="M142 163C168.08 163 189.222 141.858 189.222 115.778C189.222 89.6978 168.08 68.5557 142 68.5557C115.92 68.5557 94.7778 89.6978 94.7778 115.778C94.7778 141.858 115.92 163 142 163Z" fill="#F4900C"/>
<path d="M142 157.444C168.08 157.444 189.222 136.302 189.222 110.222C189.222 84.1421 168.08 63 142 63C115.92 63 94.7778 84.1421 94.7778 110.222C94.7778 136.302 115.92 157.444 142 157.444Z" fill="#FFCC4D"/>
<path d="M142 151.889C163.478 151.889 180.889 134.478 180.889 113C180.889 91.5225 163.478 74.1113 142 74.1113C120.522 74.1113 103.111 91.5225 103.111 113C103.111 134.478 120.522 151.889 142 151.889Z" fill="#FFE8B6"/>
<path d="M142 149.111C163.478 149.111 180.889 131.7 180.889 110.222C180.889 88.7446 163.478 71.3335 142 71.3335C120.522 71.3335 103.111 88.7446 103.111 110.222C103.111 131.7 120.522 149.111 142 149.111Z" fill="#FFAC33"/>
<path d="M138.7 119.9H138.532C137.701 119.9 136.905 119.57 136.317 118.983C135.73 118.395 135.4 117.599 135.4 116.768C135.4 115.893 135.052 115.054 134.433 114.435C133.815 113.816 132.975 113.468 132.1 113.468C131.225 113.468 130.385 113.816 129.767 114.435C129.148 115.054 128.8 115.893 128.8 116.768C128.8 119.349 129.825 121.825 131.65 123.65C133.475 125.475 135.951 126.5 138.532 126.5H138.7V129.8C138.7 130.675 139.048 131.515 139.667 132.133C140.285 132.752 141.125 133.1 142 133.1C142.875 133.1 143.715 132.752 144.333 132.133C144.952 131.515 145.3 130.675 145.3 129.8V126.5C147.926 126.5 150.444 125.457 152.3 123.6C154.157 121.744 155.2 119.226 155.2 116.6C155.2 113.974 154.157 111.456 152.3 109.6C150.444 107.743 147.926 106.7 145.3 106.7V100.1H145.373C147.155 100.1 148.6 101.545 148.6 103.327C148.6 104.203 148.948 105.042 149.567 105.661C150.185 106.28 151.025 106.627 151.9 106.627C152.775 106.627 153.615 106.28 154.233 105.661C154.852 105.042 155.2 104.203 155.2 103.327C155.2 100.721 154.165 98.2213 152.322 96.3783C150.479 94.5353 147.979 93.5 145.373 93.5H145.3V90.2C145.3 89.3247 144.952 88.4854 144.333 87.8665C143.715 87.2476 142.875 86.9 142 86.9C141.125 86.9 140.285 87.2476 139.667 87.8665C139.048 88.4854 138.7 89.3247 138.7 90.2V93.5C136.074 93.5 133.556 94.543 131.7 96.3996C129.843 98.2562 128.8 100.774 128.8 103.4C128.8 106.026 129.843 108.544 131.7 110.4C133.556 112.257 136.074 113.3 138.7 113.3V119.9ZM145.3 119.9V113.3C146.175 113.3 147.015 113.648 147.633 114.267C148.252 114.885 148.6 115.725 148.6 116.6C148.6 117.475 148.252 118.315 147.633 118.933C147.015 119.552 146.175 119.9 145.3 119.9ZM138.7 100.1V106.7C137.825 106.7 136.985 106.352 136.367 105.733C135.748 105.115 135.4 104.275 135.4 103.4C135.4 102.525 135.748 101.685 136.367 101.067C136.985 100.448 137.825 100.1 138.7 100.1ZM142 143C123.774 143 109 128.226 109 110C109 91.7741 123.774 77 142 77C160.226 77 175 91.7741 175 110C175 128.226 160.226 143 142 143Z" fill="#FFCC4D"/>
</svg>
