<svg width="151" height="408" viewBox="0 0 151 408" fill="none" xmlns="http://www.w3.org/2000/svg">
<circle cx="69.4041" cy="338.757" r="48.4442" transform="rotate(6 69.4041 338.757)" fill="#3BC261"/>
<rect x="80.7676" y="18.4941" width="43.4169" height="300.416" rx="21.7084" transform="rotate(6 80.7676 18.4941)" fill="#3BC261"/>
<mask id="path-3-outside-1_109_11" maskUnits="userSpaceOnUse" x="-5.90943" y="-6.23296" width="179.002" height="421.08" fill="black">
<rect fill="white" x="-5.90943" y="-6.23296" width="179.002" height="421.08"/>
<path fill-rule="evenodd" clip-rule="evenodd" d="M102.357 20.7631C90.4338 19.5099 79.7519 28.1598 78.4987 40.0834L51.8538 293.593C35.4967 299.965 23.1865 315.033 21.2252 333.694C18.4285 360.302 37.7318 384.14 64.3402 386.936C90.9486 389.733 114.786 370.43 117.583 343.821C119.583 324.79 110.278 307.177 95.0818 297.665L121.678 44.6217C122.931 32.6982 114.281 22.0163 102.357 20.7631Z"/>
</mask>
<path d="M51.8538 293.593L59.1131 312.229L70.4702 307.805L71.7442 295.684L51.8538 293.593ZM95.0818 297.665L75.1913 295.575L73.8861 307.993L84.4707 314.618L95.0818 297.665ZM98.3891 42.174C98.4878 41.2356 99.3284 40.5549 100.267 40.6535L104.448 0.872634C81.5392 -1.53517 61.0161 15.084 58.6083 37.9928L98.3891 42.174ZM71.7442 295.684L98.3891 42.174L58.6083 37.9928L31.9633 291.503L71.7442 295.684ZM41.1156 335.784C42.2642 324.856 49.4567 315.991 59.1131 312.229L44.5944 274.957C21.5367 283.939 4.10877 305.21 1.33472 331.603L41.1156 335.784ZM66.4308 367.046C50.8075 365.404 39.4735 351.407 41.1156 335.784L1.33472 331.603C-2.61653 369.197 24.656 402.875 62.2496 406.827L66.4308 367.046ZM97.6924 341.731C96.0503 357.354 82.054 368.688 66.4308 367.046L62.2496 406.827C99.8432 410.778 133.522 383.505 137.473 345.912L97.6924 341.731ZM84.4707 314.618C93.4385 320.231 98.8637 330.586 97.6924 341.731L137.473 345.912C140.302 318.995 127.118 294.123 105.693 280.712L84.4707 314.618ZM101.787 42.5312L75.1913 295.575L114.972 299.756L141.568 46.7123L101.787 42.5312ZM100.267 40.6535C101.205 40.7521 101.886 41.5928 101.787 42.5312L141.568 46.7123C143.976 23.8036 127.357 3.28044 104.448 0.872634L100.267 40.6535Z" fill="black" mask="url(#path-3-outside-1_109_11)"/>
<mask id="path-5-outside-2_109_11" maskUnits="userSpaceOnUse" x="8.37823" y="8.05469" width="150.426" height="392.505" fill="black">
<rect fill="white" x="8.37823" y="8.05469" width="150.426" height="392.505"/>
<path fill-rule="evenodd" clip-rule="evenodd" d="M102.357 20.7631C90.4338 19.5099 79.7519 28.1598 78.4987 40.0834L51.8538 293.593C35.4967 299.965 23.1865 315.033 21.2252 333.694C18.4285 360.302 37.7318 384.14 64.3402 386.936C90.9486 389.733 114.786 370.43 117.583 343.821C119.583 324.79 110.278 307.177 95.0818 297.665L121.678 44.6217C122.931 32.6982 114.281 22.0163 102.357 20.7631Z"/>
</mask>
<path d="M51.8538 293.593L54.3945 300.116L58.3695 298.567L58.8154 294.325L51.8538 293.593ZM95.0818 297.665L88.1201 296.934L87.6633 301.28L91.3679 303.599L95.0818 297.665ZM85.4603 40.8151C86.3095 32.7364 93.5469 26.8756 101.626 27.7247L103.089 13.8014C87.3207 12.1441 73.1944 23.5833 71.537 39.3517L85.4603 40.8151ZM58.8154 294.325L85.4603 40.8151L71.537 39.3517L44.8921 292.861L58.8154 294.325ZM28.1868 334.425C29.8637 318.471 40.3827 305.574 54.3945 300.116L49.313 287.07C30.6107 294.356 16.5093 311.595 14.2635 332.962L28.1868 334.425ZM65.0719 379.975C42.3083 377.582 25.7943 357.189 28.1868 334.425L14.2635 332.962C11.0627 363.415 33.1552 390.697 63.6085 393.898L65.0719 379.975ZM110.621 343.089C108.229 365.853 87.8355 382.367 65.0719 379.975L63.6085 393.898C94.0617 397.099 121.344 375.006 124.544 344.553L110.621 343.089ZM91.3679 303.599C104.384 311.746 112.331 326.819 110.621 343.089L124.544 344.553C126.835 322.762 116.172 302.608 98.7956 291.732L91.3679 303.599ZM114.716 43.89L88.1201 296.934L102.043 298.397L128.639 45.3534L114.716 43.89ZM101.626 27.7247C109.704 28.5738 115.565 35.8113 114.716 43.89L128.639 45.3534C130.297 29.5851 118.857 15.4587 103.089 13.8014L101.626 27.7247Z" fill="white" mask="url(#path-5-outside-2_109_11)"/>
<line x1="48.4206" y1="181.981" x2="121.637" y2="189.676" stroke="black" stroke-width="8"/>
<line x1="56.6408" y1="103.766" x2="129.857" y2="111.461" stroke="black" stroke-width="8"/>
</svg>
