<svg width="217" height="244" viewBox="0 0 217 244" fill="none" xmlns="http://www.w3.org/2000/svg">
<path d="M137 244C163.08 244 184.222 222.858 184.222 196.778C184.222 170.698 163.08 149.556 137 149.556C110.92 149.556 89.7778 170.698 89.7778 196.778C89.7778 222.858 110.92 244 137 244Z" fill="#F4900C"/>
<path d="M137 238.444C163.08 238.444 184.222 217.302 184.222 191.222C184.222 165.142 163.08 144 137 144C110.92 144 89.7778 165.142 89.7778 191.222C89.7778 217.302 110.92 238.444 137 238.444Z" fill="#FFCC4D"/>
<path d="M137 232.889C158.478 232.889 175.889 215.478 175.889 194C175.889 172.522 158.478 155.111 137 155.111C115.522 155.111 98.1113 172.522 98.1113 194C98.1113 215.478 115.522 232.889 137 232.889Z" fill="#FFE8B6"/>
<path d="M137 230.111C158.478 230.111 175.889 212.7 175.889 191.222C175.889 169.745 158.478 152.333 137 152.333C115.522 152.333 98.1113 169.745 98.1113 191.222C98.1113 212.7 115.522 230.111 137 230.111Z" fill="#FFAC33"/>
<path d="M133.7 200.9H133.532C132.701 200.9 131.905 200.57 131.317 199.983C130.73 199.395 130.4 198.599 130.4 197.768C130.4 196.893 130.052 196.054 129.433 195.435C128.815 194.816 127.975 194.468 127.1 194.468C126.225 194.468 125.385 194.816 124.767 195.435C124.148 196.054 123.8 196.893 123.8 197.768C123.8 200.349 124.825 202.825 126.65 204.65C128.475 206.475 130.951 207.5 133.532 207.5H133.7V210.8C133.7 211.675 134.048 212.515 134.667 213.133C135.285 213.752 136.125 214.1 137 214.1C137.875 214.1 138.715 213.752 139.333 213.133C139.952 212.515 140.3 211.675 140.3 210.8V207.5C142.926 207.5 145.444 206.457 147.3 204.6C149.157 202.744 150.2 200.226 150.2 197.6C150.2 194.974 149.157 192.456 147.3 190.6C145.444 188.743 142.926 187.7 140.3 187.7V181.1H140.373C142.155 181.1 143.6 182.545 143.6 184.327C143.6 185.203 143.948 186.042 144.567 186.661C145.185 187.28 146.025 187.627 146.9 187.627C147.775 187.627 148.615 187.28 149.233 186.661C149.852 186.042 150.2 185.203 150.2 184.327C150.2 181.721 149.165 179.221 147.322 177.378C145.479 175.535 142.979 174.5 140.373 174.5H140.3V171.2C140.3 170.325 139.952 169.485 139.333 168.867C138.715 168.248 137.875 167.9 137 167.9C136.125 167.9 135.285 168.248 134.667 168.867C134.048 169.485 133.7 170.325 133.7 171.2V174.5C131.074 174.5 128.556 175.543 126.7 177.4C124.843 179.256 123.8 181.774 123.8 184.4C123.8 187.026 124.843 189.544 126.7 191.4C128.556 193.257 131.074 194.3 133.7 194.3V200.9ZM140.3 200.9V194.3C141.175 194.3 142.015 194.648 142.633 195.267C143.252 195.885 143.6 196.725 143.6 197.6C143.6 198.475 143.252 199.315 142.633 199.933C142.015 200.552 141.175 200.9 140.3 200.9ZM133.7 181.1V187.7C132.825 187.7 131.985 187.352 131.367 186.733C130.748 186.115 130.4 185.275 130.4 184.4C130.4 183.525 130.748 182.685 131.367 182.067C131.985 181.448 132.825 181.1 133.7 181.1ZM137 224C118.774 224 104 209.226 104 191C104 172.774 118.774 158 137 158C155.226 158 170 172.774 170 191C170 209.226 155.226 224 137 224Z" fill="#FFCC4D"/>
<path d="M160 120C191.296 120 216.666 94.6293 216.666 63.3332C216.666 32.037 191.296 6.6665 160 6.6665C128.704 6.6665 103.333 32.037 103.333 63.3332C103.333 94.6293 128.704 120 160 120Z" fill="#F4900C"/>
<path d="M160 113.333C191.296 113.333 216.666 87.9628 216.666 56.6667C216.666 25.3705 191.296 0 160 0C128.704 0 103.333 25.3705 103.333 56.6667C103.333 87.9628 128.704 113.333 160 113.333Z" fill="#FFCC4D"/>
<path d="M160 106.667C185.773 106.667 206.667 85.7735 206.667 60.0002C206.667 34.2269 185.773 13.3335 160 13.3335C134.227 13.3335 113.333 34.2269 113.333 60.0002C113.333 85.7735 134.227 106.667 160 106.667Z" fill="#FFE8B6"/>
<path d="M160 103.333C185.773 103.333 206.667 82.44 206.667 56.6667C206.667 30.8934 185.773 10 160 10C134.227 10 113.333 30.8934 113.333 56.6667C113.333 82.44 134.227 103.333 160 103.333Z" fill="#FFAC33"/>
<path d="M156.04 68.2798H155.838C154.841 68.2798 153.885 67.8838 153.181 67.1791C152.476 66.4743 152.08 65.5184 152.08 64.5217C152.08 63.4715 151.663 62.4642 150.92 61.7216C150.177 60.9789 149.17 60.5617 148.12 60.5617C147.07 60.5617 146.062 60.9789 145.32 61.7216C144.577 62.4642 144.16 63.4715 144.16 64.5217C144.16 67.6189 145.39 70.5893 147.58 72.7793C149.77 74.9694 152.741 76.1998 155.838 76.1998H156.04V80.1598C156.04 81.21 156.457 82.2173 157.2 82.9599C157.942 83.7025 158.95 84.1198 160 84.1198C161.05 84.1198 162.057 83.7025 162.8 82.9599C163.543 82.2173 163.96 81.21 163.96 80.1598V76.1998C167.111 76.1998 170.132 74.9481 172.36 72.7202C174.588 70.4923 175.84 67.4705 175.84 64.3198C175.84 61.169 174.588 58.1473 172.36 55.9193C170.132 53.6914 167.111 52.4398 163.96 52.4398V44.5198H164.047C166.185 44.5198 167.92 46.2542 167.92 48.3926C167.92 49.4429 168.337 50.4501 169.08 51.1928C169.822 51.9354 170.83 52.3526 171.88 52.3526C172.93 52.3526 173.937 51.9354 174.68 51.1928C175.423 50.4501 175.84 49.4429 175.84 48.3926C175.84 45.265 174.597 42.2654 172.386 40.0538C170.174 37.8422 167.175 36.5998 164.047 36.5998H163.96V32.6398C163.96 31.5895 163.543 30.5823 162.8 29.8396C162.057 29.097 161.05 28.6798 160 28.6798C158.95 28.6798 157.942 29.097 157.2 29.8396C156.457 30.5823 156.04 31.5895 156.04 32.6398V36.5998C152.889 36.5998 149.867 37.8514 147.639 40.0793C145.412 42.3073 144.16 45.329 144.16 48.4798C144.16 51.6305 145.412 54.6523 147.639 56.8802C149.867 59.1081 152.889 60.3598 156.04 60.3598V68.2798ZM163.96 68.2798V60.3598C165.01 60.3598 166.017 60.777 166.76 61.5196C167.503 62.2623 167.92 63.2695 167.92 64.3198C167.92 65.37 167.503 66.3773 166.76 67.1199C166.017 67.8625 165.01 68.2798 163.96 68.2798ZM156.04 44.5198V52.4398C154.99 52.4398 153.982 52.0225 153.24 51.2799C152.497 50.5373 152.08 49.53 152.08 48.4798C152.08 47.4295 152.497 46.4223 153.24 45.6796C153.982 44.937 154.99 44.5198 156.04 44.5198ZM160 95.9998C138.129 95.9998 120.4 78.2708 120.4 56.3998C120.4 34.5287 138.129 16.7998 160 16.7998C181.871 16.7998 199.6 34.5287 199.6 56.3998C199.6 78.2708 181.871 95.9998 160 95.9998Z" fill="#FFCC4D"/>
<path d="M48.0001 155C74.0802 155 95.2223 133.858 95.2223 107.778C95.2223 81.6978 74.0802 60.5557 48.0001 60.5557C21.9199 60.5557 0.777832 81.6978 0.777832 107.778C0.777832 133.858 21.9199 155 48.0001 155Z" fill="#F4900C"/>
<path d="M48.0001 149.444C74.0802 149.444 95.2223 128.302 95.2223 102.222C95.2223 76.1421 74.0802 55 48.0001 55C21.9199 55 0.777832 76.1421 0.777832 102.222C0.777832 128.302 21.9199 149.444 48.0001 149.444Z" fill="#FFCC4D"/>
<path d="M48.0002 143.889C69.478 143.889 86.8891 126.478 86.8891 105C86.8891 83.5225 69.478 66.1113 48.0002 66.1113C26.5225 66.1113 9.11133 83.5225 9.11133 105C9.11133 126.478 26.5225 143.889 48.0002 143.889Z" fill="#FFE8B6"/>
<path d="M48.0002 141.111C69.478 141.111 86.8891 123.7 86.8891 102.222C86.8891 80.7446 69.478 63.3335 48.0002 63.3335C26.5225 63.3335 9.11133 80.7446 9.11133 102.222C9.11133 123.7 26.5225 141.111 48.0002 141.111Z" fill="#FFAC33"/>
<path d="M44.7 111.9H44.5317C43.7011 111.9 42.9046 111.57 42.3173 110.983C41.7299 110.395 41.4 109.599 41.4 108.768C41.4 107.893 41.0523 107.054 40.4335 106.435C39.8146 105.816 38.9752 105.468 38.1 105.468C37.2248 105.468 36.3854 105.816 35.7665 106.435C35.1477 107.054 34.8 107.893 34.8 108.768C34.8 111.349 35.8253 113.825 37.6503 115.65C39.4754 117.475 41.9507 118.5 44.5317 118.5H44.7V121.8C44.7 122.675 45.0477 123.515 45.6665 124.133C46.2854 124.752 47.1248 125.1 48 125.1C48.8752 125.1 49.7146 124.752 50.3335 124.133C50.9523 123.515 51.3 122.675 51.3 121.8V118.5C53.9256 118.5 56.4437 117.457 58.3004 115.6C60.157 113.744 61.2 111.226 61.2 108.6C61.2 105.974 60.157 103.456 58.3004 101.6C56.4437 99.743 53.9256 98.7 51.3 98.7V92.1H51.3726C53.1546 92.1 54.6 93.5454 54.6 95.3274C54.6 96.2026 54.9477 97.0419 55.5665 97.6608C56.1854 98.2797 57.0248 98.6274 57.9 98.6274C58.7752 98.6274 59.6146 98.2797 60.2335 97.6608C60.8523 97.0419 61.2 96.2026 61.2 95.3274C61.2 92.721 60.1646 90.2213 58.3216 88.3783C56.4786 86.5353 53.979 85.5 51.3726 85.5H51.3V82.2C51.3 81.3247 50.9523 80.4854 50.3335 79.8665C49.7146 79.2476 48.8752 78.9 48 78.9C47.1248 78.9 46.2854 79.2476 45.6665 79.8665C45.0477 80.4854 44.7 81.3247 44.7 82.2V85.5C42.0744 85.5 39.5563 86.543 37.6996 88.3996C35.843 90.2562 34.8 92.7743 34.8 95.4C34.8 98.0256 35.843 100.544 37.6996 102.4C39.5563 104.257 42.0744 105.3 44.7 105.3V111.9ZM51.3 111.9V105.3C52.1752 105.3 53.0146 105.648 53.6335 106.267C54.2523 106.885 54.6 107.725 54.6 108.6C54.6 109.475 54.2523 110.315 53.6335 110.933C53.0146 111.552 52.1752 111.9 51.3 111.9ZM44.7 92.1V98.7C43.8248 98.7 42.9854 98.3523 42.3665 97.7334C41.7477 97.1145 41.4 96.2752 41.4 95.4C41.4 94.5247 41.7477 93.6854 42.3665 93.0665C42.9854 92.4476 43.8248 92.1 44.7 92.1ZM48 135C29.7741 135 15 120.226 15 102C15 83.7741 29.7741 69 48 69C66.2259 69 81 83.7741 81 102C81 120.226 66.2259 135 48 135Z" fill="#FFCC4D"/>
</svg>
