<svg 
          width="74.40167236328125" 
          height="47.35648727416992" fill="none" 
          xmlns="http://www.w3.org/2000/svg">
          <path d="M 68.20414328321137 3.8463054048722882 C 68.20414328321137 1.7211947303662813 66.22953184137212 0 63.79744024236866 0 L 10.334433214539262 0 C 7.898431317573119 0 6.201440776398736 1.7211947303662813 6.201440776398736 3.8463054048722882 C 6.201440776398736 5.290944071981196 6.999105436325526 6.535440608931467 8.269892843633428 7.1940793513608305 L 8.269892843633428 9.6175802216705 L 16.535877719914478 9.6175802216705 L 16.535877719914478 7.692607339430365 L 24.80186259619553 7.692607339430365 L 24.80186259619553 9.6175802216705 L 33.06784747247658 9.6175802216705 L 33.06784747247658 7.692607339430365 L 41.33382489080467 7.692607339430365 L 41.33382489080467 9.6175802216705 L 49.599809767085716 9.6175802216705 L 49.599809767085716 7.692607339430365 L 57.86579464336677 7.692607339430365 L 57.86579464336677 9.6175802216705 L 66.1356874870002 9.6175802216705 L 66.1356874870002 7.095831285715802 C 67.37519402550336 6.411720328525866 68.20414328321137 5.214527319252159 68.20414328321137 3.8463054048722882 Z M 74.40167236328125 44.47085160092792 C 74.40167236328122 45.23617045918164 74.07499310629396 45.97014397543725 73.49349505717225 46.511306129187965 C 72.91199700805055 47.052468282938676 72.12331626818074 47.35648727416992 71.30095383957011 47.35648727416992 L 3.100722252687609 47.35648727416992 C 2.2783598240769765 47.35648727416991 1.4896790842071874 47.052468282938676 0.9081810350854748 46.511306129187965 C 0.3266829859637621 45.97014397543725 0 45.23617045918164 0 44.47085160092792 C 0 43.7055327426742 0.3266829859637621 42.971559226418584 0.9081810350854748 42.43039707266787 C 1.4896790842071874 41.88923491891716 2.2783598240769765 41.58521592768592 3.100722252687609 41.58521592768592 L 71.3048618069225 41.58521592768592 C 73.01358219321028 41.58521592768592 74.40167236328125 42.87701859504842 74.40167236328125 44.47085160092792 L 74.40167236328125 44.47085160092792 Z" fill="rgb(244,144,12)"/>
        </svg>