<svg 
          width="57.87360763549805" 
          height="36.854652404785156" fill="none" 
          xmlns="http://www.w3.org/2000/svg">
          <path d="M 8.269891890297371 33.008350961295285 C 8.269891890297371 35.13346136448242 7.034295908724349 36.854652404785156 5.513261260198248 36.854652404785156 L 2.756630630099124 36.854652404785156 C 1.2355959815730222 36.854652404785156 0 35.13346136448242 0 33.008350961295285 L 0 3.8463014434898684 C 0 1.7211910403027306 1.2355959815730222 0 2.756630630099124 0 L 5.513261260198248 0 C 7.034295908724349 0 8.269891890297371 1.7211910403027306 8.269891890297371 3.8463014434898684 L 8.269891890297371 33.008350961295285 Z M 57.87360763549805 33.008350961295285 C 57.87360763549805 35.13346136448242 56.641921718375926 36.854652404785156 55.11697700539892 36.854652404785156 L 52.3603463752998 36.854652404785156 C 50.839311726773694 36.854652404785156 49.603715745200674 35.13346136448242 49.603715745200674 33.008350961295285 L 49.603715745200674 3.8463014434898684 C 49.603715745200674 1.7211910403027306 50.835401662322795 0 52.3603463752998 0 L 55.11697700539892 0 C 56.63801165392503 0 57.87360763549805 1.7211910403027306 57.87360763549805 3.8463014434898684 L 57.87360763549805 33.008350961295285 Z M 24.805771432966292 33.008350961295285 C 24.805771432966292 35.13346136448242 23.57017545139327 36.854652404785156 22.049140802867168 36.854652404785156 L 19.292506443791993 36.854652404785156 C 17.771471795265892 36.854652404785156 16.53587581369287 35.13346136448242 16.53587581369287 33.008350961295285 L 16.53587581369287 3.8463014434898684 C 16.53587581369287 1.7211910403027306 17.771471795265892 0 19.292506443791993 0 L 22.049140802867168 0 C 23.57017545139327 0 24.805771432966292 1.7211910403027306 24.805771432966292 3.8463014434898684 L 24.805771432966292 33.008350961295285 Z M 41.33773182180518 33.008350961295285 C 41.33773182180518 35.13346136448242 40.10213584023216 36.854652404785156 38.581101191706054 36.854652404785156 L 35.82837852850881 36.854652404785156 C 34.3073438799827 36.854652404785156 33.07174789840968 35.13346136448242 33.07174789840968 33.008350961295285 L 33.07174789840968 3.8463014434898684 C 33.07174789840968 1.7211910403027306 34.3073438799827 0 35.82837852850881 0 L 38.581101191706054 0 C 40.10213584023216 0 41.33773182180518 1.7211910403027306 41.33773182180518 3.8463014434898684 L 41.33773182180518 33.008350961295285 Z" fill="rgb(255,217,131)"/>
        </svg>