<svg 
          width="74.40167236328125" 
          height="5.771278381347656" fill="none" 
          xmlns="http://www.w3.org/2000/svg">
          <path d="M 74.40167236328125 2.8856426609880965 C 74.40167236328122 3.6509615317381843 74.07499310629396 4.384935059978342 73.49349505717225 4.926097222565319 C 72.91199700805055 5.467259385152295 72.12331626818074 5.771278381347656 71.30095383957011 5.771278381347656 L 3.100722252687609 5.771278381347656 C 2.6935297031163357 5.77127840393466 2.290321506650049 5.696638265605242 1.9141246465805783 5.551621369422653 C 1.5379277865111078 5.406604473240065 1.1961096715908206 5.194053526239628 0.9081810350854748 4.926097222565319 C 0.6202523985801289 4.658140918891009 0.39185513820695306 4.340026211045484 0.23602929535888437 3.989924423668699 C 0.0802034525108157 3.6398226362919144 0 3.264590107240272 0 2.8856426609880965 C 0 2.506695214735921 0.0802034525108157 2.131455745055742 0.23602929535888437 1.781353957678957 C 0.39185513820695306 1.431252170302172 0.6202523985801289 1.1131444030851836 0.9081810350854748 0.8451880994108741 C 1.1961096715908206 0.5772317957365647 1.5379277865111078 0.3646739081075916 1.9141246465805783 0.21965701192500325 C 2.290321506650049 0.07464011574241491 2.6935297031163357 -2.2587016610465272e-8 3.100722252687609 1.2927928076234637e-14 L 71.3048618069225 1.2927928076234637e-14 C 73.01358219321028 1.2927928076234637e-14 74.40167236328125 1.2918096290839889 74.40167236328125 2.8856426609880965 L 74.40167236328125 2.8856426609880965 Z" fill="rgb(255,217,131)"/>
        </svg>