<svg 
          width="66.0162353515625" 
          height="8.474971771240234" fill="none" 
          xmlns="http://www.w3.org/2000/svg">
          <path d="M 66.0162353515625 1.9249727560369925 C 66.01623535156249 2.4355070217817043 65.79830590107709 2.925131778193732 65.41039625696214 3.286134010019598 C 65.0224866128472 3.6471362418454643 64.49637498269878 3.8499455120739783 63.94778788856402 3.849945512073985 L 1.9451153470444937 3.849945512073985 C 1.4185138228181318 3.819797843910794 0.9240940220580114 3.6038663879282913 0.5626612941942568 3.2461768148066983 C 0.20122856633050218 2.8884872416851053 0 2.415972895483499 0 1.9249727560369925 C 0 1.433972616590486 0.20122856633050218 0.9614582703888793 0.5626612941942568 0.6037686972672864 C 0.9240940220580114 0.24607912414569355 1.4185138228181318 0.030147668163190974 1.9451153470444937 0 L 63.94778788856402 0.010917607793971083 C 64.21872227016102 0.009960258646457654 64.48719785893113 0.0587363723265531 64.73785325929036 0.15445326449023236 C 64.9885086596496 0.2501701566539116 65.21642175582227 0.3909482354344303 65.40854668541007 0.5687324072838369 C 65.60067161499788 0.7465165791332435 65.75324022701146 0.9578157962969767 65.85751526377555 1.1905363263264785 C 65.96179030053965 1.4232568563559804 66.01572319379285 1.6728303969008644 66.0162353515625 1.9249727560369925 L 66.0162353515625 1.9249727560369925 Z M 10.215004691289487 4.159251127162621 L 55.68571820469139 4.159251127162621 L 55.68571820469139 8.474971771240234 L 10.215004691289487 8.474971771240234 L 10.215004691289487 4.159251127162621 Z" fill="rgb(244,144,12)"/>
        </svg>